<?xml version="1.0" encoding="UTF-8" standalone="no"?>
<!-- Created with Inkscape (http://www.inkscape.org/) -->

<svg
   width="105.25534mm"
   height="102.31011mm"
   viewBox="0 0 105.25534 102.31011"
   version="1.1"
   id="svg1"
   xml:space="preserve"
   sodipodi:docname="pivotick.inkscape.svg"
   inkscape:version="1.4.2 (1:1.4.2+202505120737+ebf0e940d0)"
   xmlns:inkscape="http://www.inkscape.org/namespaces/inkscape"
   xmlns:sodipodi="http://sodipodi.sourceforge.net/DTD/sodipodi-0.dtd"
   xmlns="http://www.w3.org/2000/svg"
   xmlns:svg="http://www.w3.org/2000/svg"><sodipodi:namedview
     id="namedview1"
     pagecolor="#ffffff"
     bordercolor="#000000"
     borderopacity="0.25"
     inkscape:showpageshadow="2"
     inkscape:pageopacity="0.0"
     inkscape:pagecheckerboard="0"
     inkscape:deskcolor="#d1d1d1"
     inkscape:document-units="mm"
     inkscape:zoom="2.0892739"
     inkscape:cx="43.555803"
     inkscape:cy="173.98389"
     inkscape:window-width="3440"
     inkscape:window-height="1403"
     inkscape:window-x="0"
     inkscape:window-y="0"
     inkscape:window-maximized="1"
     inkscape:current-layer="g18"><inkscape:page
       x="0"
       y="0"
       width="105.25534"
       height="102.3101"
       id="page2"
       margin="0"
       bleed="0" /></sodipodi:namedview><defs
     id="defs1" /><g
     inkscape:label="Layer 1"
     inkscape:groupmode="layer"
     id="layer1"
     transform="translate(-132.34004,-40.686568)"
     style="display:inline"><g
       id="g18"
       transform="translate(-0.76115162,16.879652)"><circle
         style="display:inline;opacity:1;fill:#343437;fill-opacity:1;stroke:#202023;stroke-width:0.465;stroke-linejoin:miter;stroke-dasharray:none;stroke-opacity:1"
         id="path38"
         cx="185.39676"
         cy="67.595512"
         r="23.909109"
         inkscape:export-filename="pivotick.svg"
         inkscape:export-xdpi="96"
         inkscape:export-ydpi="96" /><g
         id="g38"
         transform="translate(1.7516963,-0.42598673)"><path
           style="fill:none;fill-opacity:1;stroke:#730ff0;stroke-width:1.465;stroke-linejoin:miter;stroke-dasharray:none;stroke-opacity:1"
           d="m 172.06958,58.106949 -4.43259,17.08113 c 0,0 4.77129,-18.38632 4.43259,-17.08113 z m 2.91042,6.35"
           id="path12-2"
           sodipodi:nodetypes="scs" /><path
           style="fill:none;fill-opacity:1;stroke:#730ff0;stroke-width:1.465;stroke-linejoin:miter;stroke-dasharray:none;stroke-opacity:1"
           d="m 172.06958,58.106949 11.26057,11.28295 z"
           id="path13-5"
           sodipodi:nodetypes="scs" /><path
           style="fill:none;fill-opacity:1;stroke:#730ff0;stroke-width:1.465;stroke-linejoin:miter;stroke-dasharray:none;stroke-opacity:1"
           d="m 180.17447,83.688009 3.15568,-14.29811 z"
           id="path14-4"
           sodipodi:nodetypes="scs" /><path
           style="fill:none;fill-opacity:1;stroke:#730ff0;stroke-width:1.465;stroke-linejoin:miter;stroke-dasharray:none;stroke-opacity:1"
           d="m 196.38425,78.622449 -13.0541,-9.23255 z"
           id="path15-4"
           sodipodi:nodetypes="scs" /><path
           style="fill:none;fill-opacity:1;stroke:#730ff0;stroke-width:1.465;stroke-linejoin:miter;stroke-dasharray:none;stroke-opacity:1"
           d="m 191.82525,58.676819 -8.4951,10.71308 z"
           id="path16-9"
           sodipodi:nodetypes="scs" /><path
           style="fill:none;fill-opacity:1;stroke:#730ff0;stroke-width:1.465;stroke-linejoin:miter;stroke-dasharray:none;stroke-opacity:1"
           d="m 167.82718,75.329829 15.50297,-5.93993 z"
           id="path17-9"
           sodipodi:nodetypes="scs"
           inkscape:export-filename="pivotick.svg"
           inkscape:export-xdpi="96"
           inkscape:export-ydpi="96" /><circle
           style="fill:#730ff0;fill-opacity:1;stroke-width:0.264583;stroke-linejoin:round"
           id="path6-6"
           cx="172.11801"
           cy="58.196976"
           r="3.4509096" /><circle
           style="fill:#730ff0;fill-opacity:1;stroke-width:0.264583;stroke-linejoin:round"
           id="path7-0"
           cx="167.7173"
           cy="75.103294"
           r="3.4825697" /><circle
           style="fill:#730ff0;fill-opacity:1;stroke-width:0.264583;stroke-linejoin:round"
           id="path8-5"
           cx="180.12791"
           cy="83.8097"
           r="3.1343126" /><circle
           style="fill:#730ff0;fill-opacity:1;stroke-width:0.264583;stroke-linejoin:round"
           id="path9-0"
           cx="196.08441"
           cy="78.364235"
           r="3.3559308" /><circle
           style="fill:#730ff0;fill-opacity:1;stroke-width:0.264583;stroke-linejoin:round"
           id="path10-2"
           cx="183.45219"
           cy="69.214577"
           r="4.4007015" /><circle
           style="fill:#ff5f2e;fill-opacity:1;stroke-width:0.264583;stroke-linejoin:round"
           id="path11-9"
           cx="191.90533"
           cy="58.830193"
           r="2.2478402" /><path
           style="display:inline;fill:#730ff0;fill-opacity:1"
           d="m 194.41722,71.448859 c -0.34801,-0.19288 -0.41456,-0.43125 -0.41769,-1.49605 -0.002,-0.69729 0.036,-1.10771 0.12744,-1.37619 0.13447,-0.39464 0.53199,-0.81634 0.92821,-0.98467 0.12178,-0.0517 0.94693,-0.11259 1.87818,-0.13852 1.8146,-0.0505 1.87717,-0.0673 2.28471,-0.61279 0.15742,-0.21069 0.17268,-0.37123 0.21086,-2.21722 0.0289,-1.3989 0.0724,-2.04485 0.14648,-2.17443 0.1311,-0.22945 0.40689,-0.37345 1.06979,-0.55856 0.28416,-0.0794 0.53674,-0.17677 0.56129,-0.21649 0.0245,-0.0397 -0.36999,-0.851 -0.87675,-1.80285 -0.85528,-1.6065 -0.92672,-1.77615 -0.996,-2.36497 -0.19605,-1.66627 -0.45556,-2.5209 -1.08508,-3.57346 -0.93166,-1.55773 -2.51676,-2.67953 -4.36439,-3.08874 -0.88453,-0.19591 -2.62971,-0.17145 -3.45049,0.0484 -2.29748,0.61526 -4.15871,2.56541 -4.76419,4.99182 -0.26084,1.04528 -0.26225,2.73587 -0.003,3.77208 0.0999,0.39968 0.18171,0.84694 0.18171,0.99392 0,0.33237 -0.27919,0.61403 -0.67179,0.67774 -0.44528,0.0723 -0.74034,-0.22879 -0.95472,-0.9741 -0.55592,-1.93276 -0.48435,-3.89334 0.21169,-5.79897 0.76997,-2.10799 2.60109,-4.04651 4.58783,-4.8569 1.98003,-0.80765 4.52204,-0.79782 6.61227,0.0256 2.77395,1.09273 4.955,4.00007 5.16618,6.88652 0.0599,0.81923 0.12248,0.98577 0.91563,2.43821 1.3681,2.50535 1.50481,2.895 1.2134,3.45852 -0.18548,0.35869 -0.48658,0.55282 -1.23591,0.79685 l -0.68354,0.2226 -0.0346,1.65244 c -0.0306,1.46057 -0.0557,1.70642 -0.21673,2.11724 -0.23192,0.59176 -0.69696,1.12022 -1.25858,1.43021 -0.43706,0.24123 -0.4546,0.24365 -2.07304,0.2853 -1.9773,0.0509 -1.86583,-0.0218 -1.86583,1.21638 0,0.83507 -0.006,0.86039 -0.24059,1.09542 -0.26424,0.26424 -0.57472,0.30749 -0.90265,0.12573 z"
           id="path8-3-0-3"
           sodipodi:nodetypes="sccsssscssssssssssssssssssscssssscss" /></g></g></g><g
     inkscape:groupmode="layer"
     id="layer3"
     inkscape:label="Layer 3"
     style="display:inline"><g
       id="g17"
       transform="translate(-39.637974,-69.271476)"
       style="display:inline"><path
         style="opacity:1;fill:none;fill-opacity:1;stroke:#730ff0;stroke-width:1.465;stroke-linejoin:miter;stroke-dasharray:none;stroke-opacity:1"
         d="m 73.974401,112.40078 -4.432587,17.08113 c 0,0 4.771287,-18.38632 4.432587,-17.08113 z m 2.910417,6.35"
         id="path12"
         sodipodi:nodetypes="scs"
         transform="translate(-132.34004,-40.686569)" /><path
         style="opacity:1;fill:none;fill-opacity:1;stroke:#730ff0;stroke-width:1.465;stroke-linejoin:miter;stroke-dasharray:none;stroke-opacity:1"
         d="m 73.974401,112.40078 11.260564,11.28295 z"
         id="path13"
         sodipodi:nodetypes="scs"
         transform="translate(-132.34004,-40.686569)" /><path
         style="opacity:1;fill:none;fill-opacity:1;stroke:#730ff0;stroke-width:1.465;stroke-linejoin:miter;stroke-dasharray:none;stroke-opacity:1"
         d="m 82.07929,137.98184 3.155675,-14.29811 z"
         id="path14"
         sodipodi:nodetypes="scs"
         transform="translate(-132.34004,-40.686569)" /><path
         style="opacity:1;fill:none;fill-opacity:1;stroke:#730ff0;stroke-width:1.465;stroke-linejoin:miter;stroke-dasharray:none;stroke-opacity:1"
         d="M 98.289069,132.91628 85.234965,123.68373 Z"
         id="path15"
         sodipodi:nodetypes="scs"
         transform="translate(-132.34004,-40.686569)" /><path
         style="opacity:1;fill:none;fill-opacity:1;stroke:#730ff0;stroke-width:1.465;stroke-linejoin:miter;stroke-dasharray:none;stroke-opacity:1"
         d="m 93.730069,112.97065 -8.495104,10.71308 z"
         id="path16"
         sodipodi:nodetypes="scs"
         transform="translate(-132.34004,-40.686569)" /><path
         style="opacity:1;fill:none;fill-opacity:1;stroke:#730ff0;stroke-width:1.465;stroke-linejoin:miter;stroke-dasharray:none;stroke-opacity:1"
         d="m 69.731998,129.62366 15.502967,-5.93993 z"
         id="path17"
         sodipodi:nodetypes="scs"
         transform="translate(-132.34004,-40.686569)" /><circle
         style="opacity:1;fill:#06aed5;fill-opacity:1;stroke-width:0.264583;stroke-linejoin:round"
         id="path6"
         cx="74.022827"
         cy="112.49081"
         r="3.4509096"
         transform="translate(-132.34004,-40.686569)" /><circle
         style="opacity:1;fill:#06aed5;fill-opacity:1;stroke-width:0.264583;stroke-linejoin:round"
         id="path7"
         cx="69.622124"
         cy="129.39713"
         r="3.4825697"
         transform="translate(-132.34004,-40.686569)" /><circle
         style="opacity:1;fill:#06aed5;fill-opacity:1;stroke-width:0.264583;stroke-linejoin:round"
         id="path8"
         cx="82.032738"
         cy="138.10353"
         r="3.1343126"
         transform="translate(-132.34004,-40.686569)" /><circle
         style="opacity:1;fill:#06aed5;fill-opacity:1;stroke-width:0.264583;stroke-linejoin:round"
         id="path9"
         cx="97.989235"
         cy="132.65807"
         r="3.3559308"
         transform="translate(-132.34004,-40.686569)" /><circle
         style="opacity:1;fill:#06aed5;fill-opacity:1;stroke-width:0.264583;stroke-linejoin:round"
         id="path10"
         cx="85.35701"
         cy="123.50841"
         r="4.4007015"
         transform="translate(-132.34004,-40.686569)" /><circle
         style="opacity:1;fill:#f2545b;fill-opacity:1;stroke-width:0.264583;stroke-linejoin:round"
         id="path11"
         cx="93.810158"
         cy="113.12402"
         r="2.2478402"
         transform="translate(-132.34004,-40.686569)" /><path
         style="display:inline;fill:#730ff0;fill-opacity:1"
         d="m 96.322042,125.74269 c -0.34801,-0.19288 -0.41456,-0.43125 -0.41769,-1.49605 -0.002,-0.69729 0.036,-1.10771 0.12744,-1.37619 0.13447,-0.39464 0.53199,-0.81634 0.92821,-0.98467 0.12178,-0.0517 0.94693,-0.11259 1.87818,-0.13852 1.814598,-0.0505 1.877168,-0.0673 2.284708,-0.61279 0.15742,-0.21069 0.17268,-0.37123 0.21086,-2.21722 0.0289,-1.3989 0.0724,-2.04485 0.14648,-2.17443 0.1311,-0.22945 0.40689,-0.37345 1.06979,-0.55856 0.28416,-0.0794 0.53674,-0.17677 0.56129,-0.21649 0.0245,-0.0397 -0.36999,-0.851 -0.87675,-1.80285 -0.85528,-1.6065 -0.92672,-1.77615 -0.996,-2.36497 -0.19605,-1.66627 -0.45556,-2.5209 -1.08508,-3.57346 -0.931658,-1.55773 -2.516758,-2.67953 -4.364388,-3.08874 -0.88453,-0.19591 -2.62971,-0.17145 -3.45049,0.0484 -2.29748,0.61526 -4.15871,2.56541 -4.76419,4.99182 -0.26084,1.04528 -0.26225,2.73587 -0.003,3.77208 0.0999,0.39968 0.18171,0.84694 0.18171,0.99392 0,0.33237 -0.27919,0.61403 -0.67179,0.67774 -0.44528,0.0723 -0.74034,-0.22879 -0.95472,-0.9741 -0.55592,-1.93276 -0.48435,-3.89334 0.21169,-5.79897 0.76997,-2.10799 2.60109,-4.04651 4.58783,-4.8569 1.98003,-0.80765 4.52204,-0.79782 6.61227,0.0256 2.773948,1.09273 4.954998,4.00007 5.166178,6.88652 0.0599,0.81923 0.12248,0.98577 0.91563,2.43821 1.3681,2.50535 1.50481,2.895 1.2134,3.45852 -0.18548,0.35869 -0.48658,0.55282 -1.23591,0.79685 l -0.68354,0.2226 -0.0346,1.65244 c -0.0306,1.46057 -0.0557,1.70642 -0.21673,2.11724 -0.23192,0.59176 -0.69696,1.12022 -1.25858,1.43021 -0.43706,0.24123 -0.4546,0.24365 -2.073038,0.2853 -1.9773,0.0509 -1.86583,-0.0218 -1.86583,1.21638 0,0.83507 -0.006,0.86039 -0.24059,1.09542 -0.26424,0.26424 -0.57472,0.30749 -0.90265,0.12573 z"
         id="path8-3-0"
         sodipodi:nodetypes="sccsssscssssssssssssssssssscssssscss"
         transform="translate(-132.34004,-40.686569)" /></g></g></svg>
